<svg xmlns="http://www.w3.org/2000/svg" width="518.974" height="65.997" viewBox="0 0 518.974 65.997"><g fill="#FFF"><path d="M8.08 58.03V4.556h48.656c16.78 0 25.171 4.455 25.171 13.365 0 5.548-3.414 9.257-10.237 11.124 7.787 1.928 11.682 6.478 11.682 13.649 0 2.624-.723 5.032-2.168 7.227-1.445 2.195-3.453 3.908-6.021 5.139-4.095 1.98-10.438 2.971-19.029 2.971H8.08zm21.919-32.759h30.229v-9.233H29.999v9.233zm0 20.715h31.434v-9.635H29.999v9.635zM91.301 58.03V4.556h21.919v41.43h40.949V58.03H91.301zM162.236 58.03l28.302-53.474h30.952l28.423 53.474h-22.16l-5.179-9.876h-33.602l-5.661 9.876h-21.075zm32.639-21.919h21.678l-10.959-21.438-10.719 21.438zM257.983 58.03V4.556h49.499c10.999 0 18.587 1.979 22.763 5.933 1.846 1.764 3.09 3.982 3.733 6.654.642 2.672.964 7.027.964 13.067 0 7.537-.482 12.855-1.445 15.955-.964 3.1-2.891 5.585-5.781 7.454-4.657 2.941-11.562 4.41-20.715 4.41h-49.018zm21.919-12.044h32.277V16.6h-32.277v29.386zM343.01 58.03V4.556h64.434V16.6h-42.515v8.35h40.828v12.044h-40.828v8.992h42.515V58.03H343.01zM415.392 58.03V4.556h64.434V16.6h-42.515v8.35h40.828v12.044h-40.828v8.992h42.515V58.03h-64.434z"/></g><path fill="#FFF" stroke="#FFF" stroke-width=".75" stroke-miterlimit="10" d="M495.184 21.161c-4.682 0-8.499-3.817-8.499-8.498 0-4.682 3.817-8.499 8.499-8.499s8.498 3.817 8.498 8.499c0 4.717-3.852 8.498-8.498 8.498zm-7.833-8.498c0 4.321 3.512 7.832 7.833 7.832s7.832-3.511 7.832-7.832-3.511-7.833-7.832-7.833c-4.357 0-7.833 3.547-7.833 7.833zm4.574-4.52a18.476 18.476 0 0 1 2.646-.198c1.675 0 2.809.324 3.619 1.008.9.738 1.422 1.891 1.422 3.493 0 1.71-.558 2.971-1.44 3.745-.882.792-2.25 1.188-4.015 1.188-.954 0-1.692-.054-2.232-.126v-9.11zm1.872 7.706c.198.054.522.054.792.054 1.909.018 3.062-1.116 3.062-3.403 0-2.017-1.026-3.097-2.881-3.097-.433 0-.757.018-.973.09v6.356z"/></svg>