<svg xmlns="http://www.w3.org/2000/svg" viewBox="0 0 834.75 854.49"><defs><style>.cls-1{fill:#261413;}.cls-2{fill:#271513;}.cls-3{fill:#c3a493;}.cls-4{fill:#cf423b;}.cls-5{fill:#7f2422;}.cls-6{fill:#491716;}.cls-7{fill:#b02127;}</style></defs><title>yunglean</title><g id="Layer_3" data-name="Layer 3"><rect class="cls-1" y="0.14" width="834.63" height="854.35"/></g><g id="Layer_1" data-name="Layer 1"><path class="cls-2" d="M-18.48-47.83q414.42,0,828.83-.14c5.18,0,5.93,1.44,5.92,6.16-.18,54.51-.12,109-.12,163.54-12.3-1.58-18.09-10-21.88-20.65-3.85-10.82-13.69-12.15-22.48-4.42-6.54,5.74-13.7,11.38-22.21,14.14-3.62,1.18-6.29,2.79-8.17,5.93a81.54,81.54,0,0,1-12.64,15.79c-2.45,2.44-5.88,4.72-6.14,9a4.38,4.38,0,0,1-3.45,4.33c-2.42.46-2.38-1.93-3.31-3.29-2.18-3.18-6.3-3-6.88.67-1.87,11.65-9.36,21-12.34,32.18-1.85,6.94-5.92,9.62-12.93,9.11a15.18,15.18,0,0,0-12.38,4.6,23.84,23.84,0,0,1-16.51,6.72c-6.7.08-10.34,3.39-12.85,8.21-2.41,4.64-5.33,7.23-10.59,7.2-2.59,0-5.08,1.37-5.85,3.65-2.7,8-8.51,6.67-14.29,5-3.28-.92-5.57.08-7.52,2.46-3.3,4-6.69,8-6.82,13.67,0,1.9-.19,4.21-1.95,5.4-5.58,3.8-9.13,9.46-12.49,14.88C579,262,573.79,267,573.15,274c-.42,4.68-2.64,7.65-6.09,10.28-6.43,4.91-13.18,9.6-18.09,16.07-3.23,4.25-6,6.29-10.56,2.16-1.29-1.14-3.1-2.1-4.83-1a4.36,4.36,0,0,0-2,5.18c2.31,6.45-1,10.75-5.21,14.8a47.59,47.59,0,0,0-10.88,15.38,7.72,7.72,0,0,1-1.66,4.62l-4,0c-1.78-3.28-1-7.53-3.85-10.39,1.83-4.92-3-7.36-4.16-11.15,3,.08,5.59,3.49,8.94,1.15-7.45-6.88-7.45-6.88-13-5.89l-2.34-.06c-.6-1.83-1.31-3.72-.56-5.61,3.71-9.23,25.21-17.4,32.88-9.83,2.55-5.57-.08-10.86-1-16.26,1.91-.9,3.76-4.68,5-3.24,3.9,4.41,4.24-.19,5.55-1.73,5.26-6.15,6.17-13.45,6-21.29-.27-10.51.43-21.14-8.77-28.87,2.12-.82,2.29-2.14.26-2.95-1.71-.68-3.75-.53-5.64-.76L528,223.39c.26-2.94.19-5.79-3.15-7.07-1.94-.74-2.77.48-3.17,2.18l-4-.94c0-2.2,0-4.68-2.11-5.8-6.57-3.41-12.29-9-20.54-8.25a4.25,4.25,0,0,1-.95-.23c-2-1.24-3.93-2.88-6.13-3.67a51.6,51.6,0,0,0-27.72-2.18c-4.49.9-9.85-1.58-13.49,3l-2.6.32c-5.18-4.6-14.34-2.89-20.89,3.89l0,.05c-3.55-2.23-7.78-.93-11.5-2.21-5.23-1.81-5.91-4.57-1.92-8.17,1.16-1.05,2.47-1.93,2.57-3.6.43-6.53,2.88-13.94.63-19.39-2.94-7.14-2.83-12.46.94-18.64,4.87-8-3.87-17,1.63-25.19.95-1.41.46-3.82.56-5.77.25-4.81-3-8.45-7.83-7.92-2.2.24-3.07-.34-4.21-1.92-2.3-3.19-4.62-6.25-5.93-10.1s-3.34-8.65-7.72-9a18.16,18.16,0,0,1-11.32-4.91c-1-.93-3.38-.65-3.3-2.59.09-2.19,2.45-2.18,3.94-2.9,2-1,3.37-.35,3.94,1.87.28,1.09.72,2.23,2.07,2.07S388,85,388.43,83.68c1.52-4.06-1.74-9-6-8.42a12.73,12.73,0,0,1-9.81-2.52,7.08,7.08,0,0,0-6.11-1.47c-6.31,1.42-9-.14-8.76-6.91.23-7.83-4.22-9.75-10.29-10.71-4.75-.76-9.54-1.3-14.29-2.08-2.66-.44-3.3.35-4.3,3.09-1.67,4.58-4.78,8.67-7.53,12.81a2.94,2.94,0,0,1-4.1.92c-1.6-1.15-.15-2.3.56-3.3,1.2-1.66.84-3.29-1-3.55-7-1-14.47-2.66-20.86.93-6.11,3.44-11.17,4.08-16.77-.3-4.23-3.31-8.21-2.9-11,1.91-1.63,2.78-3.48,5-6.73,5.77-4,.93-5.48,3.93-6.17,7.61-1.84,9.73-3.1,11.05-13.12,12.69a6.54,6.54,0,0,0-5.72,4.45c-1.67,3.92-3.74,8-8.45,9.25-9.09,2.41-14.5,10.73-23,14.11a4.85,4.85,0,0,0-2.16,2.38c-2.64,5.71-6.87,9.1-14.78,8.85l3.44,2.17c2,1.33,3.54,3.35,2.26,5.49-1.73,2.87-3.18-.26-4.75-.88-5.27-2.09-6.58,1.35-7.33,5.37-.33,1.79,1,4.18-1.68,5.08-9.76,3.31-15.27,10.39-19.18,19.67-1.38,3.26-2.66,7.37-6.4,9.58-3.94,2.33-6.52,5.78-6.49,10.64,0,1.72-.39,3.36-2.21,3.44-5.93.26-8.32,4.34-11.28,8.69a39.08,39.08,0,0,1-9.75,9.51c-6.78,4.83-14.77,8-18.7,16.7-4.4,9.67-12.52,17.1-18.19,26.22-3.47,5.6-9.26,10.36-12.28,16.61C71.12,276.48,64,282.86,56.1,288c-3.71,2.41-5.57,4.74-5.5,8.64.2,10.87-5.88,18.48-14.1,23.65-11.83,7.45-19.15,18-25,30.1C5.05,363.74-1.4,377.08-8.31,390.18c-2,3.88-4.64,8.05-9.79,8.94,0-2.62-.13-5.25-.13-7.87q0-215.28,0-430.56C-18.27-42.15-18.41-45-18.48-47.83ZM423.22,138c1.7.05,2.2-1.11,2.25-2.5a2.13,2.13,0,0,0-1.64-2.45,2.18,2.18,0,0,0-2.65,2.13A2.36,2.36,0,0,0,423.22,138Z" transform="translate(18.48 47.97)"/><path class="cls-3" d="M509.25,355.84c-5.9,11.26-17.64,18.08-22.72,30-.09.2-.19.49-.35.55-8.95,3.2-13.22,11.82-20.15,17.31-4.08,3.24-9,2.54-13.61.38-1.93-.91-3.48-2.76-6-1.9-.1-1-.55-1.52-1.62-1.13l-7.11-1.36-1.21-1c.65-3.24-1.78-2.22-3.33-2.4l-1.88-.8a6.42,6.42,0,0,0-6.17-3.05l-.12-.44-.44-.1c-.21-.8-.17-1.87-.67-2.37A80.24,80.24,0,0,1,406,362.34c-1.8-4.44-3.64-8.87-5.59-13.24-.62-1.37-1.56-2.84-3.46-2.33-1.63.43-1.61,1.93-1.53,3.22.93,14.47,7,27.17,13.8,39.58a5,5,0,0,0,.77,4.89c-3.09,2.51-2.15,4.81.36,7l1.79,4.05c-3-.57-5.19-.38-2.85,3.48l-3.43-.48q-5.36-1-4.24,4.63l1.64,2.27c-4-1.46-7.24-.42-10.66,2.23-2.92,2.26-5.47,5.6-9.74,5.73-2.23-3.17,1-6.59-.34-9.69-4.27-9.65-2.27-20.3-4.93-30.17s-1.56-19.94-3.89-29.85a53.46,53.46,0,0,1-.72-22.76c3.17.65,2.6-2.06,3.32-3.66,1.19-2.65,1.68-6.11,5.9-5.54,2,5.37,6.51,6.43,11.35,6.5,3,0,4.42-2.13,4.92-5-10.85-2-11.41-2.33-16.29-9.84l-.85-1.39,0-.07c-2.59-5.12-1.56-10.64-1.78-16a29,29,0,0,1,3.28-17c3-5.49,9.21-7.92,12.82-4.48A154.57,154.57,0,0,0,408,285.12l-1.62,4c-3.6.13-4.4,3.47-6.32,5.52-1.58.81-2.79,3.16-5,1.35-1.37-1.12-1.31-2.69-.7-4.13.4-1,1.45-2,.2-2.69a3.64,3.64,0,0,0-3,.46c-5.6,3.52-6.55,12.13-2,16.94,1.18,1.24,2.38,2.46,3.52,3.74,1.43,1.61,3.45,2.69,5.15,1.52,2.37-1.63.23-3.32-.76-4.9-.3-.48-.16-1.24-.23-1.86-.51-4,2-6.38,4.67-8.63,1.29,1.19,1.52,3.56,4.31,3s1.88-2.95,2.64-4.5c3.3,1.52,5.47-.53,8.16-2.06,7.08-4,6-11.3,7.75-17.45,4.18-.17,5.69-1.18,5.84-6.45s4.09-10.7,6.58-15.94c.22-.45,2.15.14,3.11-.23,2.86-1.12,5.9-2.28,4.68-6.44,1.64.08,3.49.88,4.42-1.33,1.63,0,3.25-.14,2.11-2.42a3.46,3.46,0,0,1,.87-4.53c1.93,3.85,3.91,5.59,6.05.14,3.58,7.83,8.7,12.18,18.18,10,2.81-.66,6.69-1.59,9.75.79l1.12.83,1.93.9c1.7,3.31,4.11,6.57,7.52,7.4,6.68,1.62,10.72,5.48,13.44,11.49,1.23,2.71,3.15,5.3,6.56,5.53,3.77.25,0-4.59,3.15-5.05,3.71,3.73,4.29,9,6.69,13.26.92,5.4,3.55,10.69,1,16.26-7.67-7.57-29.17.6-32.88,9.83-.75,1.89,0,3.78.56,5.61-4.12,4.36-1.46,9.17-.92,13.84l.18,5.63c-.55,2.05-2.44,2.9-3.81,4.2a17.42,17.42,0,0,1-9.88-2.85c-2.75-1.88-5.75-2.5-9.54,1.72,5.51-.83,9.52-.22,12.89,2.52.92,3.88,1.11,8.6,7.33,6.36,1.59,3.08-3.73,1.89-2.82,4.63,2.94,1.25,5.4.47,6.14-2.59.8-3.31-2.72-.43-3.46-1.91-.11-3.59,3.92-5.1,4.24-8.47C504.88,340.55,507.23,348.06,509.25,355.84Zm-25.46-51.49c3.14.92,4-.91,4.24-3.5,7.29-6.79,7.47-10,1-17.53-3.38-3.9-8.09-5.95-12.42-8.32-9.06-4.95-18.56-7.6-28.45-1.88l-1.62,1a5.47,5.47,0,0,0-3.58,2.85c-2.32,1.12-3.86,2.62-2.62,5.45a5.2,5.2,0,0,0-3.68,4.91c0,8.51-1.26,17.47,8.26,22.7,2.38,1.31,4.16,3.77,6.1,5.81,5.79,6.05,9.33,6.29,16.77,1,5.28,1.06,10,.24,13.77-4,3-.13,3.84-1.36,2.1-4,0-1.43-.05-2.87-.08-4.3Zm-32.33,64.83c2.82,3.3,5.36,6.9,8.53,9.81,5.43,5,15.57,5.73,19.68,1.75,2.65-2.56,5.2-5.22,7.67-7.94,1.68-1.85,2.82-4.22,1.71-6.57-1-2.11-2.73-3.85-5.6-3.74-3.11.11-5.78-1.28-8.62-2.52-6.94-3.05-14.34-5-22-4.17-3.48.38-8.08,1.57-4.19,7C448.37,365.5,450.06,367.28,451.46,369.18Z" transform="translate(18.48 47.97)"/><path class="cls-4" d="M486.36,249c-3.06-2.38-6.94-1.45-9.75-.79-9.48,2.21-14.6-2.14-18.18-10,1.57-5.76,4.61-6.29,9.57-2.34,3.57,2.86,6.54,8,12.57,5.08,2.53.24,5-1.06,7.29,2.13s6.19,4.52,6.76-1.86c.35-3.84,2.55-3.22,5.12-2.62,4.81,1.12,8,6.18,13.67,5.35,1.47-.21,3.4,1.79,4.21-.94.66-2.19-.2-3.81-2.43-4.65s-4.58-1.63-5.81-4c.59-3.8-2.59-5.68-4.32-8.26-.71-1.06-2.78-1.95-3.13-.63-.63,2.45-4.2,2.33-3.89,4.52s2.58,1.53,4.25,1.16c2.63-.58,4.77-.32,5.12,3-4.79,2.57-9.89,2.07-15,1.54l.45-3.59-.06-.06c-1.66,0-3-.59-3.48-2.24s.74-1.68,1.82-1.85c7.86-1.19,5.68-4.82,2.12-8.77-5.42-4.86-13.42-4.52-19.2-9.18,2.56-2.2,5.57,1,7-.52,4.24-4.51,9-3.05,13.89-2.24l2.77,1.9,1.21.48c6.8,1.32,12.16,6.07,18.75,7.89l4,.94,6.32,4.89,1.15,1.12a1.77,1.77,0,0,0-.18,1c-1.37.22-3.93-1.14-2.79,2.31.61,1.88,2.75,3.72.58,5.91-4.31-.93-7.92-3.63-12.28-5.6,2,7.93,7,10.24,12.41,6.45,4.12,2.51,3.44,7.28,5.16,10.91a3.61,3.61,0,0,1-.86,4.67c-1.81,1.79-3.71,1.27-5.33.07-3.38-2.52-6.38-5.13-8.73,1.16-.76,2-3.3,1.07-4.74.57-3.62-1.24-8-1.51-10.63-.13-4.92,2.61-8.36,0-12.37-1.12l-1.94-.9Zm23.1-30.93c-1.59-.13-2.83.05-2.74,1.43.18,3,2.42,4.46,5,5,1.23.24,3.77-.13,3.51-1.78C514.75,219.53,511.28,219.38,509.46,218.06Zm-11.16-3.64c-2.83-3.49-5.25-5.39-9.9-3C491.65,213.18,493.88,215.25,498.3,214.42Z" transform="translate(18.48 47.97)"/><path class="cls-5" d="M495,207.29c-4.87-.81-9.65-2.27-13.89,2.24-1.46,1.55-4.47-1.68-7,.52,5.78,4.66,13.78,4.32,19.2,9.17-1.49,3.18-3.35,4.12-7.1,2.79-2.67-.94-5.35-4.3-8.91-1.71a24.9,24.9,0,0,1,1.7,3.57c.66,2.2.69,4.63-1.58,5.76-2.73,1.36-3.09-1.58-4-3-2.39-3.69-5-6.39-10.06-4.92-1.42.42-3.75,1.43-4.88-.23-2.49-3.66-4.61-.57-6.66.18-2.49.91-1.3,3.26-1.34,5.13-.05,2.86,2.22,5.26,1.53,8.22l-6.54-.79c1.23-5.31-.2-7.48-5.74-4.94a5.89,5.89,0,0,1-2,.19l-1.28-1.37c.11-3.35-4.21-5.37-2.73-9.13,0-.4,0-.81,0-1.21v-1.41l6.77-3.95-8,.37c-5.67-3.55-11.46-1.3-17.21-.34-.17-.21-.34-.42-.52-.61,2.2-3.12,5.79-4.56,8.51-7.06l0,0a127.9,127.9,0,0,0,20.89-3.89l2.6-.32c3,.4,5.84,1.84,9,1,8.72-2.46,17.2-.84,25.7,1.41,4.11,1.09,8.34,3.1,12.64.44a3.76,3.76,0,0,0,.95.22C495,204.77,495,206,495,207.29Z" transform="translate(18.48 47.97)"/><path class="cls-5" d="M526.79,233.74c2.17-2.19,0-4-.58-5.91-1.14-3.45,1.42-2.09,2.79-2.31l5.56,2.7c9.2,7.73,8.5,18.36,8.77,28.87.19,7.84-.72,15.14-6,21.29-1.31,1.54-1.65,6.14-5.55,1.73-1.27-1.44-3.12,2.34-5,3.24-2.4-4.3-3-9.53-6.69-13.26-3.14.46.62,5.3-3.15,5.05-3.41-.23-5.33-2.82-6.56-5.53-2.72-6-6.76-9.87-13.44-11.49-3.41-.83-5.82-4.09-7.52-7.4,4,1.14,7.46,3.73,12.38,1.12,2.6-1.38,7-1.11,10.63.13,1.44.5,4,1.47,4.74-.57,2.35-6.29,5.35-3.68,8.73-1.16,1.62,1.2,3.52,1.72,5.33-.07a3.61,3.61,0,0,0,.86-4.67c-1.72-3.63-1-8.4-5.16-10.91A2.47,2.47,0,0,0,526.79,233.74Zm-16.1,23.14c1.64,2.09,3.33,4,6.17,2.73.51-.22,1-1.87.76-2.22C515.56,254.81,513.07,257.07,510.69,256.88Z" transform="translate(18.48 47.97)"/><path class="cls-6" d="M494.53,328.89c-.54-4.67-3.2-9.48.92-13.84l2.34.06c-1.66,4.15,2.61,3.23,4,4.74,1.19,3.79,6,6.23,4.16,11.14a16,16,0,0,0-.33,2.46c0,1.78,1.46,4.06-1.06,5-1.9.71-3.07-1.19-4.17-2.41C498.37,333.75,496.49,331.28,494.53,328.89Z" transform="translate(18.48 47.97)"/><path class="cls-6" d="M494.12,203.28c-4.3,2.66-8.53.65-12.64-.44-8.5-2.25-17-3.87-25.7-1.41-3.16.89-6-.55-9-1,3.64-4.63,9-2.15,13.49-3A51.6,51.6,0,0,1,488,199.61C490.19,200.4,492.08,202,494.12,203.28Z" transform="translate(18.48 47.97)"/><path class="cls-5" d="M494.53,328.89c2,2.39,3.84,4.86,5.91,7.16,1.1,1.22,2.27,3.12,4.17,2.41,2.52-.95,1.07-3.23,1.06-5A16,16,0,0,1,506,331c2.9,2.87,2.07,7.12,3.85,10.4-.36,2.17-2.45,5.36.42,6.21,3.22,1,2.29-3.15,3.37-4.92a3.56,3.56,0,0,0,.24-1.25,7.72,7.72,0,0,0,1.66-4.62c1.23,7.45-.2,14-6.29,19-2-7.78-4.37-15.29-13.45-17.7-.37-1.2-.73-2.41-1.09-3.62Z" transform="translate(18.48 47.97)"/><path class="cls-6" d="M495,207.29c0-1.26.05-2.52.08-3.79,8.25-.76,14,4.85,20.54,8.26,2.15,1.12,2.12,3.6,2.11,5.8-6.59-1.82-12-6.57-18.74-7.88l-1.22-.49Z" transform="translate(18.48 47.97)"/><path class="cls-6" d="M444.18,200.8a127.9,127.9,0,0,1-20.89,3.89C429.84,197.91,439,196.2,444.18,200.8Z" transform="translate(18.48 47.97)"/><path class="cls-3" d="M501.84,319.85c-1.44-1.51-5.71-.59-4-4.74,5.54-1,5.54-1,13,5.89C507.43,323.34,504.84,319.93,501.84,319.85Z" transform="translate(18.48 47.97)"/><path class="cls-6" d="M423.22,138a2.36,2.36,0,0,1-2-2.82,2.18,2.18,0,0,1,2.65-2.13,2.13,2.13,0,0,1,1.64,2.45C425.42,136.92,424.92,138.08,423.22,138Z" transform="translate(18.48 47.97)"/><path class="cls-6" d="M528,223.39l-6.32-4.89c.4-1.7,1.23-2.92,3.17-2.18C528.22,217.6,528.29,220.45,528,223.39Z" transform="translate(18.48 47.97)"/><path class="cls-6" d="M513.88,341.43a3.56,3.56,0,0,1-.24,1.25c-1.08,1.77-.15,5.88-3.37,4.92-2.87-.85-.78-4-.42-6.21Z" transform="translate(18.48 47.97)"/><path class="cls-6" d="M534.56,228.22l-5.56-2.7a1.77,1.77,0,0,1,.18-1c1.89.23,3.93.08,5.64.76C536.85,226.08,536.68,227.4,534.56,228.22Z" transform="translate(18.48 47.97)"/><path class="cls-2" d="M437.73,399.64l7.1,1.36c-.48,1.55.71,1.71,1.7,2.05,7.54,2.52,9.13,9.08,10.67,15.67,5.49,9.25,8.58,19.61,13.51,29.12l.27,3.52c-.47,2.19-.23,4.16,1.8,5.54.1.75.21,1.51.31,2.26-.08.16-.25.36-.2.48a6.38,6.38,0,0,0,.51.87l.5,2.68c-1,3.19-.66,6.41-.23,9.63.25,2.6.9,5.23.69,7.79-1.81,21.58-3.39,43.19-5.79,64.71-3.69,33.15-14.95,64.69-21.48,97.23-2.4,11.92-7.37,24.2-3.67,36.14,3.22,10.39,1.35,18.69-3.49,27.45-2.21,4-3.35,8.57-5.51,12.6-14.75,27.6-25,57.12-37.13,85.87-1.28,2-3.37,1.69-5.29,1.69l-304.25-.16a16.25,16.25,0,0,0,0-2.61c-1.22-7.55-2.37-8.06-8.79-4.32-2.57,1.5-5.31,2.82-8.15,1,0-3.55,4.5-.89,4.39-4.42-2.7-1.3-6-2.5-8.56-1.06-5.8,3.25-11.17,3.68-16.78,0a1.58,1.58,0,0,0-2.27.52c-2.47,3.56-6.13,2.8-9.53,2.58-8.14-.52-8.8.26-6.34,8.26H26c2.17-3.09,4-6.24,2.23-10.1-3.4,2.69-5.47,5.76-4.4,10.08-3.25-7.23-1-14.9-1.83-22.34-.13-.72-.27-1.44-.41-2.17l-.05-2.73c1.14-4.85,1.38-9.68-.42-14.44-.16-.86-.33-1.72-.49-2.57l.45-.31c3.5-5.12,4.05-10.22-.08-15.29l.08-8.28.29-.43-.27-.45,0-4.4a3.59,3.59,0,0,0,.05-4.79v-8.28a1.62,1.62,0,0,0,0-2.31v-8.16a1.66,1.66,0,0,0,0-2.4q-.11-4-.19-8.06a14.44,14.44,0,0,0,0-17l.24-13.32c2.15-7.43,1-15,.93-22.51.15-3.44.31-6.89.46-10.33,2.13-1.13,4.24-.4,6.35,0q2.22,11.6,4.42,23.18A3.06,3.06,0,0,0,35.22,662c1,5,3.69,9.12,6.78,13a10.57,10.57,0,0,0,.66,3.15c1.43,2.55,2.43,6.26,6.32,5.32,4.24-1,4.17-5.09,3.21-8-1.9-5.84-3.27-12.17-8.67-16.22-1.48-2.93-3.05-5.81-4.42-8.79-6.83-14.85-11.62-30.18-10.8-46.79.07-1.38-.94-3.36,1.06-4s2.34,1.62,3.57,2.31c5.07,2.83,6.3,9.94,13.07,11.68a45.14,45.14,0,0,0-3.21-16.83c-2.76-7.54-5.59-15.2-5.32-23.33.31-9.14,1.91-18.25.13-27.39.93-10.31,6.53-18.15,13.37-25.35,8.75-9.22,16.21-18.93,20.51-31.45,4.53-13.17,16.09-21.87,26.31-30.58,5.6-4.77,11.55-8.92,15.79-15,3.56-5.15,8-8.45,14.7-8.38A12.75,12.75,0,0,0,138.8,430a52,52,0,0,0,9.83-18.68c2.36-8.27,4.42-16.85,9.5-24.13l.8-1.38.56-1.27.8-1.24c2.68-5.41,5.68-10.6,10.32-14.62.85.62,1.55,1.39,2.87.95,5.73-1.93,6.29-7,7.42-11.82v0l1.74.51,0,0,0-2.51,1.4-1.46,1.24-1.09,2.11-1.78c2,.11,3.64-.34,4.42-2.42l.24-.23.34,0,2-.92c5.35-1.08,8.26-5.9,12.76-8.29,6.59,1.1,12.42-.27,17.52-4.87a19.8,19.8,0,0,1,6.25-3.47c13.76-5.22,27.58-10.34,42.25-12.51,1.87-.27,3.32-1,4-2.86,12.34-1.58,24.75-1.07,37.13-1a41.29,41.29,0,0,0,16.54-3,4.58,4.58,0,0,0,4.32-1.32l5.15-1.06,2.71-1.46,2.18-.29c5.26-1.08,10.49-2.35,15.79-3.19,8.11-1.28,9.7,0,11.43,8.07q.3,9.08.59,18.15a53.5,53.5,0,0,0,.72,22.77c2.33,9.91,1.26,20.08,3.89,29.85s.66,20.52,4.93,30.17c1.37,3.1-1.89,6.52.34,9.68-1.17,1.49.13,3,0,4.49,0,1.73,0,3.47.05,5.2,2,3-.63,9.35,6.64,8.86l-3.54-9.7.39-2.11,2.41-1c6.41-1.75,12.19-4.49,16-10.31L407,417.6c1.71-2,3.3-4,6.3-4.25,2.48-.21,3.82-1.76,3.81-4.44,0-9,2.43-10.43,10.57-6.21C432,405,435.66,404.9,437.73,399.64ZM395,448.57a10.76,10.76,0,0,0-2.59-.09c-3.27.67-4,3-3.55,5.91.5,3.17,1.82,2.91,4.52,1.64,3.24-1.53,4.16,2,5.24,4.09s1.63,4.36-2,4.58c-2.83.17-3.07,2.19-2.61,4.18s2.35,2.43,4.14,2.39a6.12,6.12,0,0,0,6-4.06c.65-1.81-.62-2.89-2.26-3.85-4-2.33-5.21-6.16-4.7-10.55.14-1.24,3.47-.9,2-3.19C398.31,448.12,396.48,448.84,395,448.57Zm16.27-8.67c-1.9,1.13-3.78,2.39-3.14,5.39C411,444.47,411.4,442.37,411.3,439.9Zm-8.68,13,2.33-1.36a2.89,2.89,0,0,1,0,1.2,7.52,7.52,0,0,1-1,1.34Zm13.06-18.49c.13-.8-.07-1.49-.85-1.3a2.12,2.12,0,0,0-1.21,1.32c-.14.43.23,1.46.43,1.48C415.06,436,415.42,435.13,415.68,434.41Z" transform="translate(18.48 47.97)"/><path class="cls-5" d="M473.77,455.62l-1,1.28c-2-1.38-2.27-3.35-1.8-5.54C472.73,452.24,473.16,454,473.77,455.62Z" transform="translate(18.48 47.97)"/><path class="cls-4" d="M634.75,739.5l1.45,1.06c-1.37.81-1-.66-1.42-1.09Z" transform="translate(18.48 47.97)"/><path class="cls-5" d="M708,325.91c0,.14.06.37,0,.4a1,1,0,0,1-.47,0v-.43Z" transform="translate(18.48 47.97)"/><path class="cls-7" d="M528.34,388.52l-1.44-1c1.36-.8,1,.64,1.38,1.08Z" transform="translate(18.48 47.97)"/><path class="cls-5" d="M446.53,403.05c-1-.34-2.18-.5-1.7-2.05,1.08-.39,1.53.12,1.63,1.13A2.38,2.38,0,0,1,446.53,403.05Z" transform="translate(18.48 47.97)"/><path class="cls-5" d="M800.76,204.38c-.07.16-.12.42-.24.46s-.31-.13-.47-.2c.07-.16.12-.42.23-.46S800.6,204.31,800.76,204.38Z" transform="translate(18.48 47.97)"/><path class="cls-7" d="M794.29,564l1,.49c-.19.29-.33.78-.57.84s-.65-.25-1-.4Z" transform="translate(18.48 47.97)"/><path class="cls-2" d="M658.44,806.15l-18.35,0A42.08,42.08,0,0,1,658.44,806.15Z" transform="translate(18.48 47.97)"/><path class="cls-2" d="M666.37,806.16h0Z" transform="translate(18.48 47.97)"/><path class="cls-6" d="M31.72,806.11c-2.46-8-1.8-8.78,6.34-8.26,3.4.22,7.06,1,9.53-2.58a1.58,1.58,0,0,1,2.27-.52c5.61,3.65,11,3.22,16.78,0,2.56-1.44,5.86-.24,8.56,1.06.11,3.53-4.42.87-4.39,4.42,2.84,1.83,5.58.51,8.15-1,6.42-3.74,7.57-3.23,8.79,4.32a16.25,16.25,0,0,1,0,2.61Z" transform="translate(18.48 47.97)"/><path class="cls-6" d="M23.81,806.09c-1.07-4.32,1-7.39,4.4-10.08,1.74,3.86-.06,7-2.23,10.1Z" transform="translate(18.48 47.97)"/><path class="cls-6" d="M21.1,764.41c1.8,4.76,1.56,9.59.42,14.44A65.21,65.21,0,0,1,21.1,764.41Z" transform="translate(18.48 47.97)"/><path class="cls-6" d="M21.57,781.58c.14.73.28,1.45.41,2.17C21.85,783,21.71,782.31,21.57,781.58Z" transform="translate(18.48 47.97)"/><path class="cls-4" d="M445,246.37c1.22,4.16-1.82,5.32-4.68,6.44-1,.37-2.89-.22-3.11.23-2.49,5.24-6.43,10.55-6.58,15.94s-1.66,6.28-5.84,6.45c-5,4.24-10.25,8.09-16.79,9.69a154.57,154.57,0,0,1-12.37-10.67c-3.61-3.44-9.83-1-12.82,4.48a29,29,0,0,0-3.28,17c-2,.53-4.11.78-5,3.1-4.52-.47-2.56-3.09-1.77-5.33,1-10.43,7.13-19.54,7.71-30.13.4-7.18,5.87-12.5,7.64-19.22a2.21,2.21,0,0,0,.3-1.12c.28-.57.57-1.13.86-1.7.16-1.13.33-2.27.49-3.4,2-1.28,3.62-2.86,3.68-5.46,5.44-6.39,8.66-15,17.86-17.6a1.64,1.64,0,0,0,.62.78c-9.5,5.6-12.78,15.55-16.38,24.87-1.51,3.91-5,6.48-5.62,10.73-.23,1.7-1.4,3.55.54,4.69s3.15-.79,4.32-2a5.7,5.7,0,0,0,1.82-2.66c.64-4,3.41-8.35,6.41-7.57,3.56.92,1.27,5.39.12,8.34-.76,1.93.37,2.83,2,3.38s2.75.61,2.88-1.9c.16-3.24,3.59-4.28,5.56-3.86,6.64,1.43,5.67-1.73,3-6.77,6.16,2.65,10.65,1.33,14.44-2.19,1.36-1.26,2.61-1.07,3.26,0C436.79,245.09,441.35,244.75,445,246.37Z" transform="translate(18.48 47.97)"/><path class="cls-5" d="M388.12,244.37c-1.77,6.72-7.24,12-7.64,19.22-.58,10.59-6.69,19.7-7.71,30.13-6.26.55-4.3-4.88-3.41-6.53,2.92-5.39,3.61-11.26,4.26-16.95,1-8.65,6.93-15.05,9.1-23.08C383.38,244.71,385.93,244.57,388.12,244.37Z" transform="translate(18.48 47.97)"/><path class="cls-5" d="M374.54,299.05c.86-2.32,3-2.57,5-3.1.22,5.38-.81,10.9,1.78,16-3.53,3.62.61,6.51.92,9.76-4.22-.57-4.71,2.89-5.9,5.54-.72,1.6-.15,4.31-3.32,3.66q-.28-9.09-.59-18.16c2.17-.61,3.93-1.86,2.51-4.18C372.94,305.34,374.43,302.23,374.54,299.05Z" transform="translate(18.48 47.97)"/><path class="cls-5" d="M393.45,232.69c-.06,2.6-1.64,4.18-3.68,5.46C390,235.63,390.18,233.13,393.45,232.69Z" transform="translate(18.48 47.97)"/><path class="cls-5" d="M411.93,215.87a1.64,1.64,0,0,1-.62-.78c.14-2.15,1.71-2.8,3.44-3.3.17.19.34.4.51.61Z" transform="translate(18.48 47.97)"/><path class="cls-5" d="M389.28,241.55c-.29.57-.58,1.13-.86,1.7Z" transform="translate(18.48 47.97)"/><polygon class="cls-5" points="148.54 286.67 148.33 286.46 148.52 286.69 148.54 286.67"/><path class="cls-7" d="M411.93,215.87l3.33-3.47c5.75-1,11.54-3.21,17.21.33-1,1.68,0,2.67,1.22,3.59,0,.47,0,.94,0,1.41l-4.76-.24,0,.88,4.78.57c-1.48,3.76,2.84,5.78,2.73,9.13l-4.07.12a3.86,3.86,0,0,0-2.66-2.61c-1.14-1.88-2.11-4.24-4.93-2.09-1,.77-2.58,1.7-1.42,3.1,1.69,2,3.55.58,5.26-.4l1.13-.65a3.84,3.84,0,0,0,2.61,2.65c-.34.72-1.53,1.68-.6,2.19,2.06,1.12,4.16.6,6-.94a5.89,5.89,0,0,0,2-.19c5.54-2.54,7-.37,5.75,4.94-4.35,0-4.74.39-3.66,1.62,2.63,3,2.35,8.47,7.65,9.23-.93,2.21-2.78,1.41-4.42,1.33-3.63-1.62-8.19-1.28-10.67-5.38-.65-1.09-1.9-1.28-3.26,0-3.79,3.52-8.28,4.84-14.44,2.19,2.63,5,3.6,8.2-3,6.77-2-.42-5.4.62-5.56,3.86-.13,2.51-1.11,2.5-2.88,1.9s-2.75-1.45-2-3.38c1.15-2.95,3.44-7.42-.12-8.34-3-.78-5.77,3.57-6.41,7.57a5.7,5.7,0,0,1-1.82,2.66c-1.17,1.17-2.31,3.13-4.32,2s-.77-3-.54-4.69c.59-4.25,4.11-6.82,5.62-10.73C399.15,231.42,402.43,221.47,411.93,215.87Zm12,16c-1.91,2-7,.34-7,5.64,0,2,.63,3.75,2.82,3.52,4-.41,5.79-3.51,6.9-6.9C427.05,232.74,426.26,231.55,423.92,231.85Z" transform="translate(18.48 47.97)"/><path class="cls-2" d="M442.92,276.94a5.47,5.47,0,0,1,3.58-2.85l1.62-1c9.89-5.72,19.39-3.07,28.45,1.88,4.33,2.37,9,4.42,12.42,8.32,6.51,7.52,6.33,10.74-1,17.53-2.39,0-3.88,1-4.24,3.5l-.25.23-10.46-1.27-.27-.24a1.72,1.72,0,0,0-.71-1c-3-1.76-6.22-3.32-7-7.23,1.32-.88,2.58-1.81,2.89-3.51l.14-.29-.29.13c-3.35-1.16-6.74-2.42-7.77,2.81-1.12,1.22-2.63,1.13-4.08,1.22,4.21-5-2.17-5.27-3.7-7.6,1.2-2.31,3.66-1.18,5.09-2.38l5.32-.84.54.07.54-.09c2.7,1.48,5.37,1.57,7.78-.48a2.49,2.49,0,0,0,.31-2.31c-1.44-2.95-4.31-3.27-7.15-3.44-6-.35-12.05-.54-17.86,1.6C445.11,279.4,443.59,278.77,442.92,276.94Z" transform="translate(18.48 47.97)"/><path class="cls-2" d="M448.66,362.84c-3.89-5.47.71-6.66,4.19-7,7.64-.82,15,1.12,22,4.17,2.84,1.24,5.51,2.63,8.62,2.52,2.87-.11,4.6,1.63,5.6,3.74,1.11,2.35,0,4.72-1.71,6.57-2.47,2.72-5,5.38-7.67,7.94-4.11,4-14.25,3.25-19.68-1.75-3.17-2.91-5.71-6.51-8.52-9.8,3-.45,4.58,2.26,6.94,3.05,4.33,1.46,8.35,5.13,13.45,2.47,2.91.28,3.39-.81,1-2.4-4.77-3.18-9.62-6.33-15.61-6.77C454.87,363.11,452.09,361.94,448.66,362.84Z" transform="translate(18.48 47.97)"/><path class="cls-7" d="M451.94,235c.69-3-1.58-5.36-1.53-8.22,0-1.87-1.15-4.22,1.34-5.13,2.05-.75,4.17-3.84,6.66-.18,1.13,1.66,3.46.65,4.88.23,5.06-1.47,7.67,1.23,10.06,4.92.94,1.45,1.3,4.39,4,3,2.27-1.13,2.24-3.56,1.58-5.76a24.9,24.9,0,0,0-1.7-3.57c3.56-2.59,6.24.77,8.91,1.71,3.75,1.33,5.61.39,7.1-2.79,3.56,4,5.74,7.59-2.12,8.78-1.08.17-2.28.31-1.82,1.85s1.82,2.26,3.48,2.24l.06.06-.45,3.59c-3.8.83-7.28-.55-10.74-1.75-1.81-.63-3.49-1-4.6.83s.72,2.54,1.73,3.57a16.75,16.75,0,0,1,1.76,2.58c-6,2.91-9-2.22-12.57-5.08-5-3.95-8-3.42-9.57,2.34-2.14,5.45-4.12,3.71-6.05-.14C452.23,237.06,452.08,236,451.94,235Zm4.48-.82-.68-.25.1.44Z" transform="translate(18.48 47.97)"/><path class="cls-5" d="M467.75,316.84c-7.44,5.26-11,5-16.77-1-1.94-2-3.72-4.5-6.1-5.81-9.52-5.23-8.23-14.19-8.26-22.7a5.2,5.2,0,0,1,3.68-4.91c1.06,5.3.45,11.58,8.12,12.89,1,.18.91,2.22.71,3.52L448.06,300l1.48.49-.14-.14c2.42,1.28-6.34,5.41,1.37,5.34l.63.93.65-1c3.82-.75,7.06,2.65,10.93,1.52C469.38,308,469,312.23,467.75,316.84Z" transform="translate(18.48 47.97)"/><path class="cls-6" d="M467.75,316.84c1.23-4.61,1.63-8.81-4.78-9.65-3.52-4.25-8.62-5.38-13.57-6.8l.14.14c-.14-.57-.28-1.15-.41-1.73.2-1.3.33-3.34-.71-3.52-7.67-1.31-7.06-7.59-8.12-12.89-1.24-2.83.3-4.33,2.62-5.45.67,1.83,2.19,2.46,3.92,2.79,2.39,4,7.64,2.46,10.52,5.49-1.43,1.2-3.89.07-5.09,2.38,1.53,2.33,7.91,2.57,3.7,7.6,2.34,6.19,11.91,10.73,17.11,8.11l10.46,1.27c0,1.44.06,2.88.08,4.31a4.1,4.1,0,0,0-2.1,4C477.76,317.08,473,317.9,467.75,316.84Z" transform="translate(18.48 47.97)"/><path class="cls-6" d="M437.73,399.64c-2.07,5.26-5.7,5.32-10.07,3.06-8.14-4.22-10.58-2.8-10.57,6.21,0,2.68-1.33,4.23-3.81,4.44-3,.26-4.59,2.26-6.29,4.25l-3.72-2.16-1.63-2.26c2.3-.74,4.4-1.65,4.23-4.64l3.42.47c2.34,0,3.21-1.23,2.86-3.47-.6-1.35-1.19-2.7-1.79-4,1-2.4,1.55-4.78-.36-7a5,5,0,0,1-.76-4.88c4-6.7,4.06-6.76,9.3-.09,1.67,2.14,3.3,3.4,6,2.34l.44.1s.12.44.11.43c0,5.12,3.26,3.78,6.18,3.06l1.87.79c-.05,2.41,1.39,2.76,3.34,2.41Z" transform="translate(18.48 47.97)"/><path class="cls-5" d="M424.58,391.83c-2.74,1.06-4.37-.2-6-2.34-5.24-6.67-5.32-6.61-9.3.09-6.85-12.42-12.88-25.12-13.81-39.59-.08-1.29-.1-2.79,1.53-3.22,1.9-.51,2.84,1,3.46,2.33,1.95,4.37,3.79,8.8,5.59,13.24a80.24,80.24,0,0,0,17.9,27.12C424.41,390,424.37,391,424.58,391.83Z" transform="translate(18.48 47.97)"/><path class="cls-7" d="M408,285.12c6.54-1.6,11.77-5.45,16.79-9.69-1.78,6.15-.67,13.44-7.75,17.45-2.69,1.53-4.86,3.58-8.17,2.06,0-2.3-1.12-4.1-2.49-5.8Z" transform="translate(18.48 47.97)"/><path class="cls-6" d="M389.56,306.59c-4.58-4.81-3.63-13.42,2-16.94a3.64,3.64,0,0,1,3-.46c1.25.68.2,1.73-.2,2.69-.61,1.44-.67,3,.7,4.13,2.23,1.81,3.44-.54,5-1.34l1.88,1.79c-2.71,2.25-5.18,4.63-4.67,8.61A14.68,14.68,0,0,0,389.56,306.59Z" transform="translate(18.48 47.97)"/><path class="cls-5" d="M403.27,415.44,407,417.6c-.73.4-1.45.81-2.17,1.22-6.17.3-10.31,5.52-16.17,6.74-1,.22-.35,2.36.19,3.57l-2.41,1a4.87,4.87,0,0,0-3.54-2.25c.11-1.5-1.19-3,0-4.49,4.27-.12,6.82-3.46,9.74-5.72C396,415,399.25,414,403.27,415.44Z" transform="translate(18.48 47.97)"/><path class="cls-5" d="M448.66,362.84c3.43-.9,6.21.27,8.6,2.7,3.29,5.56,9.63,6.28,14.6,9.17-5.1,2.66-9.12-1-13.45-2.47-2.36-.79-4-3.5-6.94-3.05C450.06,367.28,448.37,365.5,448.66,362.84Z" transform="translate(18.48 47.97)"/><path class="cls-6" d="M382.21,321.73c-.31-3.25-4.45-6.14-.92-9.76l0,.07.85,1.39c4.88,7.51,5.44,7.85,16.29,9.84-.5,2.83-2,5-4.92,5C388.72,328.16,384.16,327.1,382.21,321.73Z" transform="translate(18.48 47.97)"/><path class="cls-4" d="M451.94,235c.14,1,.29,2.08.44,3.11a3.46,3.46,0,0,0-.87,4.53c1.14,2.28-.48,2.41-2.11,2.42-5.3-.76-5-6.21-7.65-9.23-1.08-1.23-.69-1.58,3.66-1.62Z" transform="translate(18.48 47.97)"/><path class="cls-2" d="M494.71,334.52c.36,1.21.72,2.42,1.09,3.62-.32,3.36-4.35,4.87-4.24,8.46l.14-.13c-6.22,2.24-6.41-2.48-7.33-6.36,2.16-.55,4.72.78,6.53-1.39C492.27,337.42,494.16,336.57,494.71,334.52Z" transform="translate(18.48 47.97)"/><path class="cls-4" d="M401.91,296.46,400,294.67c1.93-2.06,2.73-5.4,6.33-5.53,1.37,1.7,2.51,3.5,2.49,5.8-.75,1.55.23,3.91-2.63,4.5S403.2,297.65,401.91,296.46Z" transform="translate(18.48 47.97)"/><path class="cls-5" d="M389.56,306.59a14.68,14.68,0,0,1,7.68-1.52c.07.64-.07,1.4.23,1.88,1,1.58,3.13,3.27.76,4.9-1.7,1.17-3.72.09-5.15-1.52C391.94,309.05,390.74,307.83,389.56,306.59Z" transform="translate(18.48 47.97)"/><path class="cls-6" d="M490.9,338.72c-1.81,2.17-4.37.84-6.53,1.39-3.37-2.74-7.38-3.35-12.89-2.52,3.79-4.22,6.79-3.6,9.54-1.72A17.42,17.42,0,0,0,490.9,338.72Z" transform="translate(18.48 47.97)"/><path class="cls-6" d="M491.56,346.6c.74,1.48,4.26-1.4,3.46,1.91-.74,3.06-3.2,3.84-6.14,2.59-.91-2.74,4.41-1.55,2.82-4.63Z" transform="translate(18.48 47.97)"/><path class="cls-5" d="M431.31,395.42c-2.92.72-6.15,2.06-6.18-3.06A6.46,6.46,0,0,1,431.31,395.42Z" transform="translate(18.48 47.97)"/><path class="cls-5" d="M412.15,405.54c.35,2.24-.52,3.48-2.86,3.47C407,405.16,409.1,405,412.15,405.54Z" transform="translate(18.48 47.97)"/><path class="cls-5" d="M410,394.46c1.91,2.26,1.38,4.64.36,7C407.85,399.27,406.91,397,410,394.46Z" transform="translate(18.48 47.97)"/><path class="cls-5" d="M405.87,408.54c.17,3-1.93,3.9-4.23,4.64C400.88,409.4,402.3,407.86,405.87,408.54Z" transform="translate(18.48 47.97)"/><path class="cls-5" d="M481.52,312.87a4.1,4.1,0,0,1,2.1-4C485.36,311.51,484.48,312.74,481.52,312.87Z" transform="translate(18.48 47.97)"/><path class="cls-5" d="M436.52,398.62c-1.95.35-3.39,0-3.34-2.41C434.74,396.4,437.17,395.38,436.52,398.62Z" transform="translate(18.48 47.97)"/><path class="cls-6" d="M483.79,304.35c.36-2.45,1.85-3.53,4.24-3.5C487.79,303.44,486.93,305.27,483.79,304.35Z" transform="translate(18.48 47.97)"/><path class="cls-5" d="M486.36,249l1.12.83Z" transform="translate(18.48 47.97)"/><path class="cls-6" d="M448.12,273.12l-1.62,1Z" transform="translate(18.48 47.97)"/><path class="cls-5" d="M382.19,313.43l-.85-1.39Z" transform="translate(18.48 47.97)"/><path class="cls-5" d="M480.57,241a16.75,16.75,0,0,0-1.76-2.58c-1-1-2.89-1.69-1.73-3.57s2.79-1.46,4.6-.83c3.46,1.2,6.94,2.58,10.74,1.75,5.1.53,10.2,1,15-1.54l2,.2c1.23,2.35,3.55,3.13,5.81,4s3.09,2.46,2.43,4.65c-.81,2.73-2.74.73-4.21.94-5.68.83-8.86-4.23-13.67-5.35-2.57-.6-4.77-1.22-5.12,2.62-.57,6.38-4.49,5-6.76,1.86S483.1,241.21,480.57,241Z" transform="translate(18.48 47.97)"/><path class="cls-7" d="M526.79,233.74a2.47,2.47,0,0,1,.13.85c-5.45,3.79-10.36,1.48-12.41-6.45C518.87,230.11,522.48,232.81,526.79,233.74Z" transform="translate(18.48 47.97)"/><path class="cls-7" d="M509.38,234.4l-2-.2c-.34-3.33-2.48-3.59-5.11-3-1.67.37-3.93,1.13-4.25-1.16s3.26-2.07,3.89-4.52c.35-1.32,2.42-.43,3.13.63C506.79,228.72,510,230.6,509.38,234.4Z" transform="translate(18.48 47.97)"/><path class="cls-7" d="M509.46,218.06c1.82,1.32,5.29,1.47,5.77,4.61.26,1.65-2.28,2-3.51,1.78-2.58-.5-4.82-1.95-5-5C506.63,218.11,507.87,217.93,509.46,218.06Z" transform="translate(18.48 47.97)"/><path class="cls-7" d="M498.3,214.42c-4.42.83-6.65-1.24-9.9-3C493.05,209,495.47,210.93,498.3,214.42Z" transform="translate(18.48 47.97)"/><path class="cls-5" d="M497.76,209.19l1.22.49Z" transform="translate(18.48 47.97)"/><path class="cls-7" d="M492.81,232.09l.06.06Z" transform="translate(18.48 47.97)"/><path class="cls-4" d="M433.69,216.32c-1.22-.92-2.23-1.91-1.22-3.59l8-.36Z" transform="translate(18.48 47.97)"/><path class="cls-4" d="M432.36,228.19l4.07-.12,1.28,1.37c-1.8,1.54-3.9,2.06-6,.94-.93-.51.26-1.47.6-2.19Z" transform="translate(18.48 47.97)"/><path class="cls-4" d="M433.7,218.94l-4.78-.57,0-.88,4.76.24C433.72,218.13,433.72,218.54,433.7,218.94Z" transform="translate(18.48 47.97)"/><path class="cls-4" d="M510.69,256.88c2.38.19,4.87-2.07,6.93.51.28.35-.25,2-.76,2.22C514,260.86,512.33,259,510.69,256.88Z" transform="translate(18.48 47.97)"/><path class="cls-5" d="M23.76,620.82c1.35-13,1-26.52,4.54-38.88,3.44-11.9,4.64-24.35,9.3-35.88,1.78,9.14.18,18.25-.13,27.39-.27,8.13,2.56,15.79,5.32,23.33A45.14,45.14,0,0,1,46,613.61c-6.77-1.74-8-8.85-13.07-11.68-1.23-.69-1.72-2.93-3.57-2.31s-1,2.66-1.06,4c-.82,16.61,4,31.94,10.8,46.79,1.37,3,2.94,5.86,4.42,8.79-.33,5.28,3.51,11-1.52,15.79-3.09-3.91-5.78-8-6.77-13a4.06,4.06,0,0,0-1.92-3.22q-2.21-11.6-4.42-23.18c-.51-4-.94-8-1.59-11.92C27,621.86,27.38,618.73,23.76,620.82Z" transform="translate(18.48 47.97)"/><path class="cls-6" d="M207.15,339.66c10.7-9.55,23.78-14.41,37.11-18.78q13.2-2.46,26.41-4.9c2.14-.39,4.32-.88,6.48,0-.66,1.88-2.11,2.59-4,2.86-14.67,2.17-28.49,7.29-42.25,12.51a19.8,19.8,0,0,0-6.25,3.47C219.57,339.39,213.74,340.76,207.15,339.66Z" transform="translate(18.48 47.97)"/><path class="cls-3" d="M395,448.57c1.45.27,3.28-.45,4.23,1.05,1.45,2.29-1.88,1.95-2,3.19-.51,4.39.71,8.22,4.7,10.55,1.64,1,2.91,2,2.26,3.85a6.12,6.12,0,0,1-6,4.06c-1.79,0-3.68-.42-4.14-2.39s-.22-4,2.61-4.18c3.62-.22,3-2.62,2-4.58s-2-5.62-5.24-4.09c-2.7,1.27-4,1.53-4.52-1.64-.45-2.87.28-5.24,3.55-5.91A10.76,10.76,0,0,1,395,448.57Z" transform="translate(18.48 47.97)"/><path class="cls-6" d="M42,675c5-4.82,1.19-10.51,1.52-15.79,5.4,4,6.77,10.38,8.67,16.22,1,2.95,1,7-3.21,8-3.89.94-4.89-2.77-6.32-5.32A10.57,10.57,0,0,1,42,675Z" transform="translate(18.48 47.97)"/><path class="cls-6" d="M23.76,620.82c3.62-2.09,3.24,1,3.54,2.86.65,4,1.08,8,1.59,11.92-2.11-.44-4.22-1.17-6.35,0C21.85,630.56,23.79,625.77,23.76,620.82Z" transform="translate(18.48 47.97)"/><path class="cls-6" d="M388.84,429.13c-.54-1.21-1.24-3.35-.19-3.57,5.86-1.22,10-6.44,16.17-6.74C401,424.64,395.25,427.38,388.84,429.13Z" transform="translate(18.48 47.97)"/><path class="cls-6" d="M170.61,368.7c2.84-4.18,5.71-8.34,10.29-10.87-1.13,4.78-1.69,9.89-7.42,11.82C172.16,370.09,171.46,369.32,170.61,368.7Z" transform="translate(18.48 47.97)"/><path class="cls-5" d="M386,432.24l3.54,9.7c-7.27.49-4.65-5.84-6.64-8.85Z" transform="translate(18.48 47.97)"/><path class="cls-6" d="M20.92,698.68a85.06,85.06,0,0,1,0-17A14.44,14.44,0,0,1,20.92,698.68Z" transform="translate(18.48 47.97)"/><path class="cls-6" d="M21.06,761.53A54.77,54.77,0,0,1,21,746.24C25.11,751.31,24.56,756.41,21.06,761.53Z" transform="translate(18.48 47.97)"/><path class="cls-6" d="M21.15,668.4c-.32-7.53-.73-15.06.93-22.51C22.16,653.41,23.3,661,21.15,668.4Z" transform="translate(18.48 47.97)"/><path class="cls-6" d="M411.3,439.9c.1,2.47-.26,4.57-3.14,5.39C407.52,442.29,409.4,441,411.3,439.9Z" transform="translate(18.48 47.97)"/><path class="cls-6" d="M386,432.24l-3.1.85c0-1.74,0-3.48-.05-5.21a4.87,4.87,0,0,1,3.54,2.25Z" transform="translate(18.48 47.97)"/><path class="cls-3" d="M402.62,452.9l1.41,1.18a7.52,7.52,0,0,0,1-1.34,2.89,2.89,0,0,0,0-1.2Z" transform="translate(18.48 47.97)"/><path class="cls-6" d="M415.68,434.41c-.26.72-.62,1.57-1.63,1.5-.2,0-.57-1.05-.43-1.48a2.12,2.12,0,0,1,1.21-1.32C415.61,432.92,415.81,433.61,415.68,434.41Z" transform="translate(18.48 47.97)"/><path class="cls-6" d="M330.82,312c1-1.8,2.39-2.47,4.32-1.31A4.6,4.6,0,0,1,330.82,312Z" transform="translate(18.48 47.97)"/><path class="cls-6" d="M187.38,351.49a5.46,5.46,0,0,1,4.42-2.42C191,351.15,189.35,351.6,187.38,351.49Z" transform="translate(18.48 47.97)"/><path class="cls-6" d="M33.31,658.78A4.06,4.06,0,0,1,35.23,662,3.05,3.05,0,0,1,33.31,658.78Z" transform="translate(18.48 47.97)"/><path class="cls-6" d="M340.29,309.64c.42-1.39,1.13-2.23,2.71-1.46Z" transform="translate(18.48 47.97)"/><path class="cls-6" d="M21.06,732.68c0-1.6,0-3.2.05-4.79A3.59,3.59,0,0,1,21.06,732.68Z" transform="translate(18.48 47.97)"/><path class="cls-6" d="M180.89,357.79a2.2,2.2,0,0,1,1.74-2c0,.84,0,1.67,0,2.51l0,0Z" transform="translate(18.48 47.97)"/><path class="cls-6" d="M21.11,719.61v-2.32A1.63,1.63,0,0,1,21.11,719.61Z" transform="translate(18.48 47.97)"/><path class="cls-6" d="M21.1,709.14v-2.4A1.66,1.66,0,0,1,21.1,709.14Z" transform="translate(18.48 47.97)"/><path class="cls-6" d="M21.06,738a.74.74,0,0,1,0-.88l.27.45Z" transform="translate(18.48 47.97)"/><path class="cls-6" d="M192.38,348.87l2-.92Z" transform="translate(18.48 47.97)"/><path class="cls-6" d="M184,354.36l1.24-1.1Z" transform="translate(18.48 47.97)"/><path class="cls-6" d="M182.61,358.33l0,0Z" transform="translate(18.48 47.97)"/><path class="cls-6" d="M159.49,384.56l.8-1.24Z" transform="translate(18.48 47.97)"/><path class="cls-6" d="M158.13,387.21l.8-1.38Z" transform="translate(18.48 47.97)"/><path class="cls-5" d="M473.09,459.16a7.63,7.63,0,0,1,.41.87c0,.14-.06.32-.1.48a6.38,6.38,0,0,1-.51-.87C472.84,459.52,473,459.32,473.09,459.16Z" transform="translate(18.48 47.97)"/><path class="cls-7" d="M434.13,754.51a6.26,6.26,0,0,1-.36-.9c0-.05.37-.3.45-.25a5.1,5.1,0,0,1,.77.62Z" transform="translate(18.48 47.97)"/><path class="cls-7" d="M475.74,721.07l-1.76-.24.31-.71,1.43,1Z" transform="translate(18.48 47.97)"/><path class="cls-7" d="M452,760.55l.84.38a1.3,1.3,0,0,1-.41-.07,2.21,2.21,0,0,1-.38-.37Z" transform="translate(18.48 47.97)"/><path class="cls-7" d="M544.06,459.53l0,0Z" transform="translate(18.48 47.97)"/><path class="cls-7" d="M143.19,334.66l-.86,1.43-.59-.6,1.45-.84Z" transform="translate(18.48 47.97)"/><path class="cls-7" d="M143.19,334.65c.27-.48.55-.95.83-1.43l.6.58-1.43.86Z" transform="translate(18.48 47.97)"/><path class="cls-5" d="M175.1,263.83c-.17.05-.37.2-.47.15s-.13-.3-.19-.46c.16-.06.36-.2.47-.15S175,263.67,175.1,263.83Z" transform="translate(18.48 47.97)"/><path class="cls-5" d="M17,451.67l1.79.31c-.84,1.09-1.17-.22-1.75-.36Z" transform="translate(18.48 47.97)"/><path class="cls-4" d="M423.92,231.85c2.34-.3,3.13.89,2.69,2.26-1.11,3.39-2.92,6.49-6.9,6.9-2.19.23-2.81-1.52-2.82-3.52C416.88,232.19,422,233.8,423.92,231.85Z" transform="translate(18.48 47.97)"/><path class="cls-4" d="M429.74,225.54l-1.13.65c-1.71,1-3.57,2.43-5.26.4-1.16-1.4.41-2.33,1.42-3.1,2.82-2.15,3.79.21,4.93,2.09Z" transform="translate(18.48 47.97)"/><path class="cls-4" d="M429.7,225.58a3.86,3.86,0,0,1,2.66,2.61h0a3.84,3.84,0,0,1-2.61-2.65Z" transform="translate(18.48 47.97)"/><path class="cls-5" d="M457.36,285.22c-2.88-3-8.13-1.53-10.52-5.49,5.81-2.14,11.83-2,17.86-1.6,2.84.17,5.71.49,7.15,3.44a2.49,2.49,0,0,1-.31,2.31c-2.41,2.05-5.08,2-7.78.48l-.51-1.66-.57,1.68Z" transform="translate(18.48 47.97)"/><path class="cls-3" d="M473.08,303.31c-5.2,2.62-14.77-1.92-17.11-8.11,1.45-.09,3,0,4.08-1.22,1.52,1.17,3.28,1,5,.86.8,3.91,4,5.47,7,7.22.24.34.48.67.71,1Z" transform="translate(18.48 47.97)"/><path class="cls-6" d="M465.08,294.84c-1.75.14-3.51.31-5-.86,1-5.23,4.42-4,7.77-2.81l.16.15C467.66,293,466.4,294,465.08,294.84Z" transform="translate(18.48 47.97)"/><path class="cls-6" d="M462.68,284.38l.57-1.68.51,1.66-.54.09Z" transform="translate(18.48 47.97)"/><polygon class="cls-6" points="486.29 339.13 486.59 339 486.45 339.29 486.29 339.13"/><path class="cls-6" d="M472.81,303.07c-.23-.34-.47-.67-.71-1A1.77,1.77,0,0,1,472.81,303.07Z" transform="translate(18.48 47.97)"/><path class="cls-3" d="M471.86,374.71c-5-2.89-11.31-3.61-14.6-9.17,6,.44,10.84,3.59,15.61,6.77C475.25,373.9,474.77,375,471.86,374.71Z" transform="translate(18.48 47.97)"/><path class="cls-4" d="M456.42,234.16l-.58.19-.1-.44Z" transform="translate(18.48 47.97)"/><path class="cls-3" d="M449.4,300.39c5,1.42,10.05,2.55,13.57,6.8-3.86,1.13-7.1-2.27-10.92-1.52l.08.07h-1.36C443.06,305.8,451.82,301.67,449.4,300.39Z" transform="translate(18.48 47.97)"/><path class="cls-3" d="M449.13,298.8c.13.58.27,1.16.41,1.73l-1.48-.49Z" transform="translate(18.48 47.97)"/><path class="cls-3" d="M452.05,305.67l-.65,1-.63-.93h1.36Z" transform="translate(18.48 47.97)"/><path class="cls-5" d="M452.13,305.74h0Z" transform="translate(18.48 47.97)"/></g></svg>